<?xml version="1.0" encoding="utf-8"?>
<!-- Generator: Adobe Illustrator 27.9.6, SVG Export Plug-In . SVG Version: 9.03 Build 54986)  -->
<svg version="1.1" id="Camada_1" xmlns="http://www.w3.org/2000/svg" xmlns:xlink="http://www.w3.org/1999/xlink" x="0px" y="0px"
	 viewBox="0 0 595.28 419.53" style="enable-background:new 0 0 595.28 419.53;" xml:space="preserve">
<style type="text/css">
	.st0{fill:#EC671A;}
	.st1{fill:#FFFFFF;}
</style>
<g>
	<g>
		<path class="st0" d="M127.38,327.01l0.03,9.15h-3.54v-21.75h10.15c0.52,0,1.02,0.07,1.51,0.22c0.49,0.15,0.94,0.35,1.35,0.62
			c0.72,0.48,1.31,1.1,1.75,1.88c0.44,0.78,0.67,1.63,0.67,2.56v2.02c0,0.7-0.13,1.36-0.39,1.97c-0.26,0.61-0.6,1.15-1.04,1.63
			c-0.33,0.37-0.68,0.67-1.04,0.9c-0.36,0.23-0.71,0.4-1.06,0.51c-0.34,0.11-0.66,0.19-0.96,0.22c-0.3,0.03-0.56,0.06-0.79,0.08
			H127.38z M127.38,317.82v5.74h6.64c0.52,0,0.96-0.18,1.32-0.54c0.36-0.36,0.54-0.8,0.54-1.32v-2.02c0-0.52-0.18-0.96-0.54-1.32
			c-0.36-0.36-0.8-0.54-1.32-0.54H127.38z"/>
		<path class="st0" d="M150.77,336.16v-10.74c0-0.72,0.14-1.41,0.42-2.05c0.28-0.64,0.66-1.2,1.13-1.68
			c0.48-0.48,1.03-0.85,1.68-1.13c0.64-0.28,1.32-0.42,2.05-0.42h3.04v3.41h-3.04c-0.52,0-0.96,0.18-1.32,0.54
			c-0.36,0.36-0.54,0.8-0.54,1.32v10.74H150.77z"/>
		<path class="st0" d="M178.42,320.18c0.68,0,1.34,0.13,1.99,0.4c0.64,0.27,1.21,0.64,1.69,1.12c0.49,0.48,0.87,1.04,1.16,1.68
			c0.29,0.64,0.43,1.33,0.43,2.08v4.41h-10.02v0.99c0,0.52,0.18,0.96,0.54,1.32c0.36,0.36,0.8,0.54,1.32,0.54h8.16v3.41h-8.16
			c-0.72,0-1.41-0.13-2.05-0.4c-0.64-0.27-1.2-0.64-1.68-1.12c-0.48-0.48-0.85-1.03-1.13-1.68c-0.28-0.64-0.42-1.33-0.42-2.08v-5.4
			c0-0.72,0.14-1.41,0.42-2.05c0.28-0.64,0.66-1.2,1.13-1.68c0.48-0.48,1.03-0.85,1.68-1.13c0.64-0.28,1.32-0.42,2.05-0.42H178.42z
			 M180.28,326.45v-0.99c0-0.52-0.18-0.96-0.54-1.32c-0.36-0.36-0.8-0.54-1.32-0.54h-2.89c-0.52,0-0.96,0.18-1.32,0.54
			c-0.36,0.36-0.54,0.8-0.54,1.32v0.99H180.28z"/>
		<path class="st0" d="M195.18,325.49c0-0.72,0.14-1.41,0.42-2.05c0.28-0.64,0.66-1.2,1.13-1.68c0.48-0.48,1.03-0.85,1.68-1.13
			c0.64-0.28,1.32-0.42,2.05-0.42h4.72v-5.4h3.41v21.35h-8.13c-0.72,0-1.41-0.14-2.05-0.42c-0.64-0.28-1.2-0.66-1.68-1.13
			c-0.48-0.48-0.85-1.03-1.13-1.68c-0.28-0.64-0.42-1.32-0.42-2.05V325.49z M198.59,330.89c0,0.52,0.18,0.96,0.54,1.32
			c0.36,0.36,0.8,0.54,1.32,0.54h4.72v-9.12h-4.72c-0.52,0-0.96,0.18-1.32,0.54c-0.36,0.36-0.54,0.8-0.54,1.32V330.89z"/>
		<path class="st0" d="M223.48,317.86h-3.41v-3.41h3.41V317.86z M223.48,336.16v-16.01h-3.41v16.01H223.48z"/>
		<path class="st0" d="M248.33,336.13h-8.1c-0.72,0-1.41-0.13-2.05-0.4c-0.64-0.27-1.2-0.64-1.68-1.12
			c-0.48-0.48-0.85-1.03-1.13-1.68c-0.28-0.64-0.42-1.33-0.42-2.08v-5.4c0-0.72,0.14-1.41,0.42-2.05c0.28-0.64,0.66-1.2,1.13-1.68
			c0.48-0.48,1.03-0.85,1.68-1.13c0.64-0.28,1.32-0.42,2.05-0.42h8.1v3.41h-8.1c-0.52,0-0.96,0.18-1.32,0.54
			c-0.36,0.36-0.54,0.8-0.54,1.32v5.4c0,0.52,0.18,0.96,0.54,1.32c0.36,0.36,0.8,0.54,1.32,0.54h8.1V336.13z"/>
		<path class="st0" d="M264.81,336.16c-0.72,0-1.41-0.14-2.05-0.42c-0.64-0.28-1.2-0.66-1.68-1.13c-0.48-0.48-0.85-1.03-1.13-1.68
			c-0.28-0.64-0.42-1.32-0.42-2.05v-16.45h3.41v5.71h4.75v3.41h-4.75v7.32c0,0.52,0.18,0.96,0.54,1.32c0.36,0.36,0.8,0.54,1.32,0.54
			h2.89v3.41H264.81z"/>
		<path class="st0" d="M282.43,317.86h-3.41v-3.41h3.41V317.86z M282.43,336.16v-16.01h-3.41v16.01H282.43z"/>
		<path class="st0" d="M307.07,320.15v10.61l-5.37,5.4h-2.73l-5.37-5.4v-10.61h3.41v9.19l3.32,3.35l3.32-3.35v-9.19H307.07z"/>
		<path class="st0" d="M326.4,320.18c0.68,0,1.34,0.13,1.99,0.4c0.64,0.27,1.21,0.64,1.69,1.12c0.49,0.48,0.87,1.04,1.16,1.68
			c0.29,0.64,0.43,1.33,0.43,2.08v4.41h-10.02v0.99c0,0.52,0.18,0.96,0.54,1.32c0.36,0.36,0.8,0.54,1.32,0.54h8.16v3.41h-8.16
			c-0.72,0-1.41-0.13-2.05-0.4c-0.64-0.27-1.2-0.64-1.68-1.12c-0.48-0.48-0.85-1.03-1.13-1.68c-0.28-0.64-0.42-1.33-0.42-2.08v-5.4
			c0-0.72,0.14-1.41,0.42-2.05c0.28-0.64,0.66-1.2,1.13-1.68c0.48-0.48,1.03-0.85,1.68-1.13c0.64-0.28,1.32-0.42,2.05-0.42H326.4z
			 M328.26,326.45v-0.99c0-0.52-0.18-0.96-0.54-1.32c-0.36-0.36-0.8-0.54-1.32-0.54h-2.89c-0.52,0-0.96,0.18-1.32,0.54
			c-0.36,0.36-0.54,0.8-0.54,1.32v0.99H328.26z"/>
		<path class="st0" d="M371.92,336.16h-3.41v-16.63c-0.04-0.48-0.24-0.87-0.59-1.19c-0.35-0.32-0.77-0.48-1.24-0.48h-2.89
			c-0.52,0-0.96,0.18-1.32,0.54c-0.36,0.36-0.54,0.8-0.54,1.32v16.45h-3.41v-16.45c0-0.72,0.14-1.41,0.42-2.05
			c0.28-0.64,0.66-1.2,1.13-1.68c0.48-0.48,1.03-0.85,1.68-1.13c0.64-0.28,1.32-0.42,2.05-0.42h2.89c0.66,0,1.3,0.12,1.92,0.36
			c0.62,0.24,1.16,0.59,1.61,1.04c0.43-0.43,0.97-0.78,1.61-1.02c0.64-0.25,1.29-0.37,1.96-0.37h2.89c0.52,0,1.02,0.07,1.51,0.22
			c0.49,0.14,0.94,0.35,1.35,0.62c0.72,0.48,1.31,1.1,1.75,1.88c0.44,0.78,0.67,1.63,0.67,2.56v16.45h-3.41v-16.45
			c0-0.52-0.18-0.96-0.54-1.32c-0.36-0.36-0.8-0.54-1.32-0.54h-2.89c-0.48,0-0.89,0.16-1.26,0.48c-0.36,0.32-0.56,0.72-0.6,1.19
			V336.16z"/>
		<path class="st0" d="M401.43,320.18c0.68,0,1.34,0.13,1.99,0.4c0.64,0.27,1.21,0.64,1.69,1.12c0.49,0.48,0.87,1.04,1.16,1.68
			c0.29,0.64,0.43,1.33,0.43,2.08v4.41h-10.02v0.99c0,0.52,0.18,0.96,0.54,1.32c0.36,0.36,0.8,0.54,1.32,0.54h8.16v3.41h-8.16
			c-0.72,0-1.41-0.13-2.05-0.4s-1.2-0.64-1.68-1.12c-0.48-0.48-0.85-1.03-1.13-1.68c-0.28-0.64-0.42-1.33-0.42-2.08v-5.4
			c0-0.72,0.14-1.41,0.42-2.05c0.28-0.64,0.66-1.2,1.13-1.68c0.48-0.48,1.03-0.85,1.68-1.13c0.64-0.28,1.32-0.42,2.05-0.42H401.43z
			 M403.29,326.45v-0.99c0-0.52-0.18-0.96-0.54-1.32c-0.36-0.36-0.8-0.54-1.32-0.54h-2.89c-0.52,0-0.96,0.18-1.32,0.54
			c-0.36,0.36-0.54,0.8-0.54,1.32v0.99H403.29z"/>
		<path class="st0" d="M418.19,325.49c0-0.72,0.14-1.41,0.42-2.05c0.28-0.64,0.66-1.2,1.13-1.68c0.48-0.48,1.03-0.85,1.68-1.13
			c0.64-0.28,1.32-0.42,2.05-0.42h4.72v-5.4h3.41v21.35h-8.13c-0.72,0-1.41-0.14-2.05-0.42c-0.64-0.28-1.2-0.66-1.68-1.13
			c-0.48-0.48-0.85-1.03-1.13-1.68c-0.28-0.64-0.42-1.32-0.42-2.05V325.49z M421.6,330.89c0,0.52,0.18,0.96,0.54,1.32
			c0.36,0.36,0.8,0.54,1.32,0.54h4.72v-9.12h-4.72c-0.52,0-0.96,0.18-1.32,0.54c-0.36,0.36-0.54,0.8-0.54,1.32V330.89z"/>
		<path class="st0" d="M446.49,317.86h-3.41v-3.41h3.41V317.86z M446.49,336.16v-16.01h-3.41v16.01H446.49z"/>
		<path class="st0" d="M471.4,320.18v15.98h-8.16c-0.72,0-1.41-0.13-2.05-0.4c-0.64-0.27-1.2-0.64-1.68-1.12
			c-0.48-0.48-0.85-1.03-1.13-1.68c-0.28-0.64-0.42-1.33-0.42-2.08v-5.43c0-0.72,0.14-1.41,0.42-2.05c0.28-0.64,0.66-1.2,1.13-1.68
			c0.48-0.48,1.03-0.85,1.68-1.13c0.64-0.28,1.32-0.42,2.05-0.42H471.4z M467.99,332.75v-9.15h-4.75c-0.52,0-0.96,0.18-1.32,0.54
			c-0.36,0.36-0.54,0.8-0.54,1.32v5.43c0,0.52,0.18,0.96,0.54,1.32c0.36,0.36,0.8,0.54,1.32,0.54H467.99z"/>
	</g>
	<g>
		<circle class="st0" cx="442.42" cy="267.67" r="3.81"/>
		<path class="st0" d="M439.52,239.51c6.57-0.65,17.7,0,24.07,8c6.38,8,6.7,23.55,3.58,32.6c-2.93,8.65-7.29,12.75-15.88,14.97
			c-6.51,1.63-20.82,1.82-27.98-4.88c-8.46-7.81-8.2-21.47-6.9-29.54c1.11-6.7,4.1-14.84,12.95-18.67
			C432.55,240.55,435.94,239.84,439.52,239.51z M431.51,249.01c-6.77,5.47-6.7,18.22-6.31,23.88c0.33,4.69,1.17,11.19,7.16,14.71
			c4.36,2.6,14.38,2.67,18.81,0.59c5.73-2.73,7.22-8.33,7.87-12.49c0.91-5.79,1.43-20.3-4.75-26.16
			c-3.84-3.64-13.01-4.16-16.46-3.45C436.13,246.47,433.4,247.51,431.51,249.01z"/>
		<g>
			<rect x="340.4" y="264.22" class="st0" width="25.48" height="6.77"/>
			<path class="st0" d="M349.74,247.17h16.14v-6.51h-16.53c-5.08,0-14.51,0.59-19.72,5.92c-4.49,4.55-4.88,12.62-4.88,16.53v32.01
				h8.91V271.6h0v-7.87h0.01c0.03-4.62-0.41-8.82,2.93-12.66C340.37,246.71,345.84,247.17,349.74,247.17z"/>
		</g>
		<polygon class="st0" points="294.11,240.61 284.29,240.61 261.32,295.07 270.1,295.07 278.75,274.12 289.36,248.94 300.03,274.12 
			308.62,295.07 317.15,295.07 		"/>
		<g>
			<path class="st0" d="M84.3,295.11l-29.09-42.62v42.62h-8.07v-54.4c0-0.07,10.15,0,10.15,0l28.57,42.1c0.07-0.13,0-42.1,0-42.1H94
				v54.4C94,295.17,84.3,295.11,84.3,295.11z"/>
			<path class="st0" d="M153.65,240.64h8.46v31.17c0,4.1-0.46,12.04,5.86,15.68c4.69,2.67,12.95,2.67,17.76-0.19
				c6.57-3.84,6.38-8.98,6.38-13.99v-32.67h8.46v33.51c0,8.07-0.07,13.34-9.37,18.54c-6.7,3.77-22.38,3.9-29.54-0.32
				c-7.87-4.62-8-10.61-8-18.15V240.64z"/>
			<path class="st0" d="M384.56,274.61c0,3.38-0.39,7.68,2.34,10.54c3.19,3.38,8.78,3.25,12.17,3.25h10.67v6.7H397.7
				c-5.47,0-12.3-0.39-17.57-5.53c-4.42-4.42-4.49-11.26-4.49-15.1v-33.84h8.91V274.61z M375.64,240.64h8.91H375.64z"/>
			<path class="st0" d="M517.61,240.64l10.8,43.53l10.93-43.53h8.78l-13.66,54.46h-11.91l-11.19-44.96l-11.19,44.96H488.2
				l-13.6-54.46h8.78l10.93,43.53l10.8-43.53H517.61z"/>
		</g>
		<g>
			<g>
				<path class="st0" d="M130.74,288.64c-5.73,0-12.23,0.26-16.66-7.22c-3.97-6.7-3.77-20.63,0.13-27.26
					c4.23-7.16,11.13-6.7,16.79-6.7h12.86v-6.64h-16.43c-8.2,0-15.75,0.13-21.67,10.61c-5.34,9.37-5.27,24.27,0,33.32
					c5.79,9.89,16.14,10.54,23.3,10.54h14.81v-6.64H130.74z"/>
			</g>
			<rect x="119.29" y="264.3" class="st0" width="24.52" height="6.74"/>
		</g>
		<g>
			<path class="st0" d="M245.25,271.64c4.42-1.17,7.42-4.4,9.76-8.5c2.73-4.75,2.41-10.8,0-15.03c-4.23-7.35-13.99-7.35-18.74-7.35
				h-26.09v54.46h8.39V271.6h0v-6.38h0v-18.54h15.36c2.6,0,9.7-0.46,12.56,4.36c1.56,2.67,1.56,7.16-0.13,9.96
				c-2.93,4.75-8.52,4.23-11.84,4.23h-9.2v6.38h1.65l9.89,0.02l1.12,2.65l8.59,20.95h8.52l-9.97-23.58L245.25,271.64z"/>
		</g>
	</g>
	<g>
		<path class="st1" d="M265.89,147.21c5.16,0,9.72,2.53,12.54,6.4l10.88-5.54c-0.14-0.67-0.23-1.36-0.23-2.07
			c0-4.22,2.68-7.8,6.43-9.16V126.8c-5.05-0.37-9.03-4.58-9.03-9.72c0-4.04,2.46-7.51,5.96-8.99l-2.57-11.81
			c-0.03,0-0.06,0.01-0.09,0.01c-3.57,0-6.46-2.89-6.46-6.46c0-3.57,2.89-6.46,6.46-6.46c3.32,0,6.03,2.52,6.39,5.75h8.5
			c0.86-2.55,3.25-4.4,6.09-4.4c3.57,0,6.46,2.89,6.46,6.46c0,2.12-1.04,3.99-2.62,5.17l11.51,18.09c0.78-0.19,1.59-0.3,2.43-0.3
			c5.64,0,10.21,4.57,10.21,10.21c0,4.85-3.39,8.91-7.93,9.95v10.35c7.38,0.77,13.14,7,13.14,14.59c0,8.1-6.57,14.67-14.67,14.67
			c-4.92,0-9.25-2.43-11.92-6.14l-12.3,6.27c0.15,0.56,0.23,1.15,0.23,1.76c0,3.32-2.33,6.1-5.45,6.79v14.37
			c2.28,0.86,3.91,3.04,3.91,5.62c0,0.62-0.12,1.2-0.29,1.76l11.52,6.65c0.88-1.05,2.19-1.73,3.67-1.73c2.65,0,4.8,2.15,4.8,4.8
			c0,2.65-2.15,4.8-4.8,4.8c-2.55,0-4.61-1.99-4.77-4.5l-12.37-7.14c-1.03,0.84-2.34,1.36-3.77,1.36c-3.32,0-6.02-2.69-6.02-6.02
			c0-2.85,1.99-5.22,4.65-5.85v-14.26c-2.89-0.85-4.99-3.51-4.99-6.67c0-3.84,3.12-6.96,6.96-6.96c1.98,0,3.77,0.83,5.03,2.16
			l12.32-6.27c-0.69-1.7-1.07-3.55-1.07-5.49c0-7.44,5.55-13.57,12.73-14.53v-10.23c-5.07-0.59-9.02-4.9-9.02-10.13
			c0-3.55,1.81-6.67,4.56-8.5l-11.62-18.26c-0.17,0.01-0.33,0.05-0.51,0.05c-3.08,0-5.65-2.16-6.29-5.04h-8.87
			c-0.53,1.11-1.35,2.04-2.39,2.69l2.62,12.06c0.14-0.01,0.27-0.02,0.41-0.02c5.39,0,9.76,4.37,9.76,9.76
			c0,4.43-2.96,8.17-7.01,9.36v9.81c5.32,0.08,9.61,4.41,9.61,9.75c0,5.39-4.37,9.76-9.76,9.76c-3.44,0-6.45-1.78-8.19-4.47
			l-10.48,5.34c0.81,1.88,1.25,3.94,1.25,6.12c0,5.99-3.4,11.18-8.36,13.77l4.05,8.47c2.58,0.09,4.64,2.19,4.64,4.79
			c0,2.65-2.15,4.8-4.8,4.8s-4.8-2.15-4.8-4.8c0-1.45,0.66-2.74,1.67-3.62l-4.01-8.39c-1.25,0.33-2.56,0.52-3.91,0.52
			c-8.58,0-15.53-6.95-15.53-15.53S257.31,147.21,265.89,147.21z"/>
		<path class="st1" d="M320.91,198.1c-4.24,0-7.68-3.44-7.68-7.68c0-4.24,3.44-7.68,7.68-7.68s7.68,3.44,7.68,7.68
			c0,0.72-0.11,1.42-0.29,2.08l7.08,3.35c1.4-1.48,3.37-2.4,5.57-2.4c2.06,0,3.93,0.82,5.3,2.13l7.27-5.06
			c-0.15-0.48-0.25-0.99-0.25-1.52c0-2.38,1.6-4.36,3.77-4.99v-8.99c-3.57-0.66-6.27-3.79-6.27-7.54c0-4.24,3.44-7.68,7.68-7.68
			s7.68,3.44,7.68,7.68c0,0.8-0.12,1.56-0.35,2.29l10.28,6.57c0.96-1.02,2.32-1.67,3.83-1.67c2.91,0,5.27,2.36,5.27,5.27
			c0,2.91-2.36,5.27-5.27,5.27s-5.27-2.36-5.27-5.27c0-0.13,0.03-0.25,0.04-0.38l-10.64-6.8c-0.94,0.99-2.15,1.73-3.5,2.11v9.33
			c1.86,0.79,3.17,2.64,3.17,4.8c0,2.88-2.33,5.21-5.21,5.21c-1.07,0-2.07-0.33-2.9-0.88l-7.43,5.17c0.3,0.82,0.47,1.71,0.47,2.63
			c0,4.24-3.44,7.68-7.68,7.68s-7.68-3.44-7.68-7.68c0-0.79,0.12-1.55,0.34-2.27l-6.99-3.31C325.2,197.12,323.17,198.1,320.91,198.1
			z"/>
		<path class="st1" d="M373.74,156.22c0-2.98,1.91-5.5,4.56-6.44V138c-1.43-0.4-2.67-1.25-3.56-2.4l-10.72,5.46
			c0.04,0.29,0.06,0.58,0.06,0.88c0,3.78-3.06,6.84-6.84,6.84s-6.84-3.06-6.84-6.84c0-3.4,2.48-6.21,5.73-6.74v-12.5
			c-3.87-1.45-6.63-5.17-6.63-9.55c0-1.35,0.27-2.64,0.75-3.82l-9.78-6.25c-1.37,1.26-3.19,2.03-5.19,2.03
			c-4.24,0-7.68-3.44-7.68-7.68c0-4.24,3.44-7.68,7.68-7.68c4.24,0,7.68,3.44,7.68,7.68c0,0.98-0.19,1.92-0.53,2.78l9.66,6.17
			c1.87-2.1,4.59-3.44,7.62-3.44c5.64,0,10.21,4.57,10.21,10.21c0,5.64-4.57,10.21-10.21,10.21c-0.04,0-0.07-0.01-0.11-0.01v12.17
			c1.24,0.46,2.31,1.26,3.09,2.3l10.68-5.44c-0.05-0.32-0.08-0.64-0.08-0.97c0-3.78,3.06-6.84,6.84-6.84s6.84,3.06,6.84,6.84
			c0,3.22-2.22,5.9-5.21,6.64v11.44c3.2,0.57,5.64,3.36,5.64,6.73c0,3.78-3.06,6.84-6.84,6.84S373.74,160,373.74,156.22z"/>
		<path class="st1" d="M213.49,148.54v-13.18c-2.04-0.73-3.52-2.66-3.52-4.95c0-2.91,2.36-5.27,5.27-5.27
			c2.91,0,5.27,2.36,5.27,5.27c0,2.31-1.49,4.25-3.56,4.96v13.17c3.22,0.79,5.61,3.68,5.61,7.14c0,0.67-0.1,1.31-0.26,1.92
			l9.81,5.15c0.99-1.13,2.32-1.94,3.85-2.25v-12.73c-2.47-0.91-4.25-3.26-4.25-6.05c0-3.57,2.89-6.46,6.46-6.46
			c1.87,0,3.54,0.81,4.72,2.08l15.05-8.69c-0.08-0.47-0.13-0.96-0.13-1.45c0-1.05,0.2-2.06,0.54-3l-12.95-3.31
			c-2.09,2.19-5.03,3.57-8.29,3.57c-6.33,0-11.46-5.13-11.46-11.46c0-6.33,5.13-11.46,11.46-11.46c3.85,0,7.25,1.9,9.32,4.82
			l10.77-4.4c-0.17-0.74-0.27-1.5-0.27-2.29c0-5.64,4.57-10.21,10.21-10.21c5.64,0,10.21,4.57,10.21,10.21
			c0,5.64-4.57,10.21-10.21,10.21c-3.62,0-6.78-1.88-8.6-4.72l-10.54,4.31c0.36,1.11,0.56,2.3,0.56,3.53c0,1.73-0.39,3.36-1.08,4.83
			l12.81,3.27c1.59-1.64,3.82-2.67,6.29-2.67c4.84,0,8.76,3.92,8.76,8.76c0,4.84-3.92,8.76-8.76,8.76c-3.09,0-5.8-1.61-7.36-4.02
			l-14.71,8.49c0.09,0.42,0.13,0.85,0.13,1.3c0,3.13-2.23,5.74-5.19,6.33v12.63c2.82,0.89,4.87,3.52,4.87,6.64
			c0,3.84-3.12,6.96-6.96,6.96c-3.84,0-6.96-3.12-6.96-6.96c0-0.5,0.06-0.99,0.16-1.47l-9.93-5.21c-1.35,1.47-3.27,2.39-5.42,2.39
			c-4.06,0-7.36-3.29-7.36-7.36C207.86,152.22,210.26,149.32,213.49,148.54z"/>
	</g>
</g>
</svg>
