<?xml version="1.0" encoding="utf-8"?>
<!-- Generator: Adobe Illustrator 27.9.6, SVG Export Plug-In . SVG Version: 9.03 Build 54986)  -->
<svg version="1.1" id="Camada_1" xmlns="http://www.w3.org/2000/svg" xmlns:xlink="http://www.w3.org/1999/xlink" x="0px" y="0px"
	 viewBox="0 0 841.89 595.28" style="enable-background:new 0 0 841.89 595.28;" xml:space="preserve">
<style type="text/css">
	.st0{fill:#1D1D1B;}
	.st1{fill:#00A6A9;}
</style>
<g>
	<g>
		<path class="st0" d="M278.19,298.51c0-11.81,10.1-21.73,22.09-21.73c6.18,0,11.81,2.63,15.85,6.79l-5.45,5.08
			c-2.57-3-6.36-4.9-10.41-4.9c-7.77,0-14.32,6.73-14.32,14.75c0,8.08,6.55,14.81,14.32,14.81c4.1,0,7.83-1.9,10.47-4.9l5.39,5.02
			c-4.04,4.22-9.67,6.86-15.85,6.86C288.29,320.3,278.19,310.33,278.19,298.51z"/>
		<path class="st0" d="M320.12,303.72c0-9,7.77-16.52,16.95-16.52c9.18,0,16.95,7.53,16.95,16.52s-7.77,16.59-16.95,16.59
			C327.9,320.3,320.12,312.71,320.12,303.72z M346.69,303.72c0-5.51-4.41-10.16-9.61-10.16c-5.26,0-9.67,4.65-9.67,10.16
			c0,5.57,4.41,10.22,9.67,10.22C342.28,313.94,346.69,309.29,346.69,303.72z"/>
		<path class="st0" d="M408.63,299.43v20.14h-7.28v-18.91c0-4.16-2.51-7.1-6.12-7.1c-4.1,0-6.92,2.75-6.92,6.61v19.4h-7.28v-18.91
			c0-4.16-2.51-7.1-6.18-7.1c-4.04,0-6.92,2.75-6.92,6.61v19.4h-7.47v-31.64h7.47v4.28c1.59-3.06,4.84-5.02,8.81-5.02
			c4.47,0,8.14,2.26,10.1,6c1.53-3.67,5.51-6,10.22-6C403.67,287.19,408.63,292.27,408.63,299.43z"/>
		<path class="st0" d="M449.89,303.72c0,9.73-6.12,16.59-14.5,16.59c-4.71,0-8.51-2.14-11.02-5.75v15.55h-7.47v-42.17h7.47v5.02
			c2.51-3.61,6.3-5.75,11.02-5.75C443.78,287.19,449.89,294.05,449.89,303.72z M442.49,303.72c0-5.94-3.79-10.16-9.12-10.16
			c-5.26,0-8.94,4.22-8.94,10.16s3.67,10.22,8.94,10.22C438.7,313.94,442.49,309.65,442.49,303.72z"/>
		<path class="st0" d="M456.63,276.79h7.47v42.78h-7.47V276.79z"/>
		<path class="st0" d="M471.88,328.93l1.59-5.39c1.35,0.73,2.88,1.16,4.04,1.16c1.77,0,3.12-0.55,4.04-2.08l1.35-2.82l-13.4-31.89
			h7.89l9.24,23.62l8.69-23.62h7.71l-13.4,33.84c-2.39,6-6.06,8.75-10.83,8.81C476.41,330.58,473.78,329.97,471.88,328.93z"/>
		<path class="st0" d="M506.83,313.45l4.41-5.45c3.86,3.49,8.32,5.69,13.83,5.69c5.2,0,7.9-2.57,7.9-5.57c0-3.49-3-4.65-9.73-6.24
			c-8.69-2.02-14.75-4.53-14.75-12.42c0-7.34,6.24-12.73,15.12-12.73c6.67,0,11.69,2.26,15.91,5.88l-4.16,5.63
			c-3.67-3.18-7.9-4.96-12.06-4.96c-4.22,0-7.1,2.57-7.1,5.51c0,3.43,3.12,4.65,9.79,6.18c8.75,1.96,14.63,4.77,14.63,12.42
			c0,7.53-5.75,12.85-15.79,12.85C517.6,320.24,511.48,317.79,506.83,313.45z"/>
		<path class="st0" d="M545.7,303.72c0-9,7.77-16.52,17.02-16.52c4.77,0,9,2.02,11.99,5.14l-5.02,4.41
			c-1.71-1.9-4.35-3.18-7.04-3.18c-5.2,0-9.55,4.65-9.55,10.16c0,5.57,4.35,10.22,9.55,10.22c2.75,0,5.45-1.28,7.22-3.3l5.02,4.35
			c-3.06,3.24-7.28,5.33-12.3,5.33C553.48,320.3,545.7,312.71,545.7,303.72z"/>
		<path class="st0" d="M608.14,300.53v19.03h-7.28v-3.8c-2.33,2.94-6.3,4.53-9.98,4.53c-6.73,0-11.81-3.98-11.81-10.1
			c0-6.24,5.81-10.53,12.91-10.53c2.88,0,6,0.61,8.88,1.71v-0.86c0-3.67-2.02-7.22-7.77-7.22c-3,0-5.88,1.04-8.57,2.39l-2.57-5.2
			c4.47-2.2,8.63-3.31,12.61-3.31C602.94,287.19,608.14,292.52,608.14,300.53z M600.86,309.65v-3.55c-2.33-0.8-4.96-1.22-7.77-1.22
			c-3.73,0-6.73,2.08-6.73,5.08c0,3,2.63,4.9,6.18,4.9C596.14,314.86,600,313.02,600.86,309.65z"/>
		<path class="st0" d="M645.24,299.43v20.14h-7.22V300.9c0-4.28-2.75-7.34-6.67-7.34c-3.92,0-7.16,2.63-7.65,6v20.01h-7.47v-31.64
			h7.47v4.22c1.96-2.94,5.63-4.96,9.79-4.96C640.4,287.19,645.24,292.27,645.24,299.43z"/>
	</g>
	<g>
		<path class="st1" d="M260.47,318.29c-5.48,6.57-13.73,10.76-22.95,10.76c-3.44,0-6.74-0.59-9.81-1.66l-8.23,8.23
			c5.44,2.7,11.56,4.22,18.04,4.22c12.21,0,23.15-5.38,30.6-13.9L260.47,318.29z"/>
		<path class="st1" d="M207.64,299.17c0-16.5,13.38-29.88,29.88-29.88c8.96,0,17,3.95,22.48,10.2l7.65-7.65
			c-7.44-8.2-18.18-13.35-30.12-13.35c-22.46,0-40.67,18.21-40.67,40.67c0,11.99,5.19,22.76,13.44,30.21l7.65-7.65
			C211.63,316.25,207.64,308.18,207.64,299.17z"/>
	</g>
	<g>
		<path class="st1" d="M237.83,309.71L237.83,309.71L237.83,309.71l-11.87-11.87l5.15-5.15l6.72,6.72l13.69-13.69
			c-3.5-3.64-8.42-5.92-13.88-5.92c-10.63,0-19.25,8.62-19.25,19.25s8.62,19.25,19.25,19.25c10.63,0,19.25-8.62,19.25-19.25
			c0-2.49-0.48-4.87-1.34-7.06L237.83,309.71z"/>
	</g>
</g>
</svg>
