<?xml version="1.0" encoding="utf-8"?>
<!-- Generator: Adobe Illustrator 27.9.6, SVG Export Plug-In . SVG Version: 9.03 Build 54986)  -->
<svg version="1.1" id="Camada_1" xmlns="http://www.w3.org/2000/svg" xmlns:xlink="http://www.w3.org/1999/xlink" x="0px" y="0px"
	 viewBox="0 0 283.46 141.73" style="enable-background:new 0 0 283.46 141.73;" xml:space="preserve">
<style type="text/css">
	.st0{fill:#EB6619;}
	.st1{fill:#1D1D1B;}
</style>
<g>
	<g>
		<path class="st0" d="M73.75,117.68l0.01,3.66h-1.41v-8.69h4.05c0.21,0,0.41,0.03,0.6,0.09c0.19,0.06,0.37,0.14,0.54,0.25
			c0.29,0.19,0.52,0.44,0.7,0.75c0.18,0.31,0.27,0.65,0.27,1.02v0.81c0,0.28-0.05,0.54-0.15,0.79c-0.1,0.24-0.24,0.46-0.42,0.65
			c-0.13,0.15-0.27,0.27-0.42,0.36c-0.14,0.09-0.29,0.16-0.42,0.2c-0.14,0.05-0.26,0.07-0.38,0.09c-0.12,0.01-0.23,0.02-0.32,0.03
			H73.75z M73.75,114.02v2.29h2.65c0.21,0,0.38-0.07,0.53-0.22c0.14-0.14,0.22-0.32,0.22-0.53v-0.81c0-0.21-0.07-0.38-0.22-0.53
			c-0.14-0.14-0.32-0.22-0.53-0.22H73.75z"/>
		<path class="st0" d="M83.09,121.34v-4.29c0-0.29,0.06-0.56,0.17-0.82c0.11-0.26,0.26-0.48,0.45-0.67
			c0.19-0.19,0.41-0.34,0.67-0.45c0.26-0.11,0.53-0.17,0.82-0.17h1.21v1.36H85.2c-0.21,0-0.38,0.07-0.53,0.22
			c-0.14,0.14-0.22,0.32-0.22,0.53v4.29H83.09z"/>
		<path class="st0" d="M94.13,114.96c0.27,0,0.54,0.05,0.79,0.16c0.26,0.11,0.48,0.26,0.68,0.45c0.19,0.19,0.35,0.41,0.46,0.67
			c0.12,0.26,0.17,0.53,0.17,0.83v1.76h-4v0.4c0,0.21,0.07,0.38,0.22,0.53c0.14,0.14,0.32,0.22,0.53,0.22h3.26v1.36h-3.26
			c-0.29,0-0.56-0.05-0.82-0.16c-0.26-0.11-0.48-0.26-0.67-0.45c-0.19-0.19-0.34-0.41-0.45-0.67s-0.17-0.53-0.17-0.83v-2.16
			c0-0.29,0.06-0.56,0.17-0.82c0.11-0.26,0.26-0.48,0.45-0.67c0.19-0.19,0.41-0.34,0.67-0.45c0.26-0.11,0.53-0.17,0.82-0.17H94.13z
			 M94.87,117.46v-0.4c0-0.21-0.07-0.38-0.22-0.53c-0.14-0.14-0.32-0.22-0.53-0.22h-1.15c-0.21,0-0.38,0.07-0.53,0.22
			c-0.14,0.14-0.22,0.32-0.22,0.53v0.4H94.87z"/>
		<path class="st0" d="M100.82,117.08c0-0.29,0.06-0.56,0.17-0.82c0.11-0.26,0.26-0.48,0.45-0.67c0.19-0.19,0.41-0.34,0.67-0.45
			c0.26-0.11,0.53-0.17,0.82-0.17h1.88v-2.16h1.36v8.52h-3.25c-0.29,0-0.56-0.06-0.82-0.17c-0.26-0.11-0.48-0.26-0.67-0.45
			c-0.19-0.19-0.34-0.41-0.45-0.67s-0.17-0.53-0.17-0.82V117.08z M102.18,119.23c0,0.21,0.07,0.38,0.22,0.53
			c0.14,0.14,0.32,0.22,0.53,0.22h1.88v-3.64h-1.88c-0.21,0-0.38,0.07-0.53,0.22c-0.14,0.14-0.22,0.32-0.22,0.53V119.23z"/>
		<path class="st0" d="M112.12,114.03h-1.36v-1.36h1.36V114.03z M112.12,121.34v-6.39h-1.36v6.39H112.12z"/>
		<path class="st0" d="M122.04,121.33h-3.23c-0.29,0-0.56-0.05-0.82-0.16c-0.26-0.11-0.48-0.26-0.67-0.45
			c-0.19-0.19-0.34-0.41-0.45-0.67s-0.17-0.53-0.17-0.83v-2.16c0-0.29,0.06-0.56,0.17-0.82c0.11-0.26,0.26-0.48,0.45-0.67
			c0.19-0.19,0.41-0.34,0.67-0.45c0.26-0.11,0.53-0.17,0.82-0.17h3.23v1.36h-3.23c-0.21,0-0.38,0.07-0.53,0.22
			c-0.14,0.14-0.22,0.32-0.22,0.53v2.16c0,0.21,0.07,0.38,0.22,0.53c0.14,0.14,0.32,0.22,0.53,0.22h3.23V121.33z"/>
		<path class="st0" d="M128.62,121.34c-0.29,0-0.56-0.06-0.82-0.17c-0.26-0.11-0.48-0.26-0.67-0.45c-0.19-0.19-0.34-0.41-0.45-0.67
			s-0.17-0.53-0.17-0.82v-6.57h1.36v2.28h1.9v1.36h-1.9v2.92c0,0.21,0.07,0.38,0.22,0.53c0.14,0.14,0.32,0.22,0.53,0.22h1.15v1.36
			H128.62z"/>
		<path class="st0" d="M135.66,114.03h-1.36v-1.36h1.36V114.03z M135.66,121.34v-6.39h-1.36v6.39H135.66z"/>
		<path class="st0" d="M145.5,114.94v4.24l-2.14,2.16h-1.09l-2.14-2.16v-4.24h1.36v3.67l1.33,1.34l1.33-1.34v-3.67H145.5z"/>
		<path class="st0" d="M153.22,114.96c0.27,0,0.54,0.05,0.79,0.16c0.26,0.11,0.48,0.26,0.68,0.45c0.19,0.19,0.35,0.41,0.46,0.67
			c0.12,0.26,0.17,0.53,0.17,0.83v1.76h-4v0.4c0,0.21,0.07,0.38,0.22,0.53c0.14,0.14,0.32,0.22,0.53,0.22h3.26v1.36h-3.26
			c-0.29,0-0.56-0.05-0.82-0.16s-0.48-0.26-0.67-0.45c-0.19-0.19-0.34-0.41-0.45-0.67c-0.11-0.26-0.17-0.53-0.17-0.83v-2.16
			c0-0.29,0.06-0.56,0.17-0.82c0.11-0.26,0.26-0.48,0.45-0.67c0.19-0.19,0.41-0.34,0.67-0.45c0.26-0.11,0.53-0.17,0.82-0.17H153.22z
			 M153.96,117.46v-0.4c0-0.21-0.07-0.38-0.22-0.53c-0.14-0.14-0.32-0.22-0.53-0.22h-1.15c-0.21,0-0.38,0.07-0.53,0.22
			c-0.14,0.14-0.22,0.32-0.22,0.53v0.4H153.96z"/>
		<path class="st0" d="M171.39,121.34h-1.36v-6.64c-0.02-0.19-0.1-0.35-0.24-0.48c-0.14-0.13-0.31-0.19-0.5-0.19h-1.15
			c-0.21,0-0.38,0.07-0.53,0.22c-0.14,0.14-0.22,0.32-0.22,0.53v6.57h-1.36v-6.57c0-0.29,0.06-0.56,0.17-0.82
			c0.11-0.26,0.26-0.48,0.45-0.67c0.19-0.19,0.41-0.34,0.67-0.45c0.26-0.11,0.53-0.17,0.82-0.17h1.15c0.26,0,0.52,0.05,0.77,0.14
			c0.25,0.1,0.46,0.23,0.64,0.42c0.17-0.17,0.39-0.31,0.64-0.41s0.52-0.15,0.78-0.15h1.15c0.21,0,0.41,0.03,0.6,0.09
			c0.19,0.06,0.37,0.14,0.54,0.25c0.29,0.19,0.52,0.44,0.7,0.75c0.18,0.31,0.27,0.65,0.27,1.02v6.57h-1.36v-6.57
			c0-0.21-0.07-0.38-0.22-0.53c-0.14-0.14-0.32-0.22-0.53-0.22h-1.15c-0.19,0-0.36,0.06-0.5,0.19c-0.14,0.13-0.22,0.29-0.24,0.48
			V121.34z"/>
		<path class="st0" d="M183.18,114.96c0.27,0,0.54,0.05,0.79,0.16c0.26,0.11,0.48,0.26,0.68,0.45c0.19,0.19,0.35,0.41,0.46,0.67
			c0.12,0.26,0.17,0.53,0.17,0.83v1.76h-4v0.4c0,0.21,0.07,0.38,0.22,0.53c0.14,0.14,0.32,0.22,0.53,0.22h3.26v1.36h-3.26
			c-0.29,0-0.56-0.05-0.82-0.16c-0.26-0.11-0.48-0.26-0.67-0.45c-0.19-0.19-0.34-0.41-0.45-0.67c-0.11-0.26-0.17-0.53-0.17-0.83
			v-2.16c0-0.29,0.06-0.56,0.17-0.82c0.11-0.26,0.26-0.48,0.45-0.67c0.19-0.19,0.41-0.34,0.67-0.45c0.26-0.11,0.53-0.17,0.82-0.17
			H183.18z M183.92,117.46v-0.4c0-0.21-0.07-0.38-0.22-0.53c-0.14-0.14-0.32-0.22-0.53-0.22h-1.15c-0.21,0-0.38,0.07-0.53,0.22
			c-0.14,0.14-0.22,0.32-0.22,0.53v0.4H183.92z"/>
		<path class="st0" d="M189.87,117.08c0-0.29,0.06-0.56,0.17-0.82c0.11-0.26,0.26-0.48,0.45-0.67c0.19-0.19,0.41-0.34,0.67-0.45
			c0.26-0.11,0.53-0.17,0.82-0.17h1.88v-2.16h1.36v8.52h-3.25c-0.29,0-0.56-0.06-0.82-0.17c-0.26-0.11-0.48-0.26-0.67-0.45
			c-0.19-0.19-0.34-0.41-0.45-0.67c-0.11-0.26-0.17-0.53-0.17-0.82V117.08z M191.23,119.23c0,0.21,0.07,0.38,0.22,0.53
			c0.14,0.14,0.32,0.22,0.53,0.22h1.88v-3.64h-1.88c-0.21,0-0.38,0.07-0.53,0.22c-0.14,0.14-0.22,0.32-0.22,0.53V119.23z"/>
		<path class="st0" d="M201.17,114.03h-1.36v-1.36h1.36V114.03z M201.17,121.34v-6.39h-1.36v6.39H201.17z"/>
		<path class="st0" d="M211.12,114.96v6.38h-3.26c-0.29,0-0.56-0.05-0.82-0.16c-0.26-0.11-0.48-0.26-0.67-0.45
			c-0.19-0.19-0.34-0.41-0.45-0.67c-0.11-0.26-0.17-0.53-0.17-0.83v-2.17c0-0.29,0.06-0.56,0.17-0.82c0.11-0.26,0.26-0.48,0.45-0.67
			c0.19-0.19,0.41-0.34,0.67-0.45c0.26-0.11,0.53-0.17,0.82-0.17H211.12z M209.75,119.98v-3.66h-1.9c-0.21,0-0.38,0.07-0.53,0.22
			c-0.14,0.14-0.22,0.32-0.22,0.53v2.17c0,0.21,0.07,0.38,0.22,0.53c0.14,0.14,0.32,0.22,0.53,0.22H209.75z"/>
	</g>
	<g>
		<circle class="st1" cx="199.54" cy="93.99" r="1.52"/>
		<path class="st1" d="M198.38,82.74c2.62-0.26,7.07,0,9.61,3.2c2.55,3.2,2.68,9.41,1.43,13.02c-1.17,3.46-2.91,5.09-6.34,5.98
			c-2.6,0.65-8.31,0.73-11.17-1.95c-3.38-3.12-3.27-8.57-2.75-11.8c0.44-2.68,1.64-5.92,5.17-7.46
			C195.6,83.16,196.96,82.87,198.38,82.74z M195.19,86.54c-2.7,2.18-2.68,7.28-2.52,9.54c0.13,1.87,0.47,4.47,2.86,5.87
			c1.74,1.04,5.74,1.07,7.51,0.23c2.29-1.09,2.88-3.33,3.14-4.99c0.36-2.31,0.57-8.11-1.9-10.44c-1.53-1.46-5.2-1.66-6.57-1.38
			C197.03,85.52,195.94,85.94,195.19,86.54z"/>
		<g>
			<rect x="158.81" y="92.61" class="st1" width="10.17" height="2.7"/>
			<path class="st1" d="M162.54,85.8h6.44v-2.6h-6.6c-2.03,0-5.79,0.23-7.87,2.36c-1.79,1.82-1.95,5.04-1.95,6.6v12.78h3.56v-9.39h0
				v-3.14h0c0.01-1.85-0.16-3.52,1.17-5.05C158.8,85.62,160.98,85.8,162.54,85.8z"/>
		</g>
		<polygon class="st1" points="140.32,83.18 136.4,83.18 127.23,104.93 130.74,104.93 134.19,96.56 138.43,86.51 142.69,96.56 
			146.12,104.93 149.52,104.93 		"/>
		<g>
			<path class="st1" d="M56.55,104.94L44.93,87.93v17.02h-3.22V83.22c0-0.03,4.05,0,4.05,0l11.41,16.81c0.03-0.05,0-16.81,0-16.81
				h3.25v21.72C60.42,104.97,56.55,104.94,56.55,104.94z"/>
			<path class="st1" d="M84.24,83.2h3.38v12.45c0,1.64-0.18,4.81,2.34,6.26c1.87,1.07,5.17,1.07,7.09-0.08
				c2.62-1.53,2.55-3.59,2.55-5.59V83.2h3.38v13.38c0,3.22-0.03,5.33-3.74,7.4c-2.68,1.51-8.94,1.56-11.8-0.13
				c-3.14-1.84-3.2-4.24-3.2-7.25V83.2z"/>
			<path class="st1" d="M176.44,96.76c0,1.35-0.16,3.07,0.94,4.21c1.27,1.35,3.51,1.3,4.86,1.3h4.26v2.68h-4.81
				c-2.18,0-4.91-0.16-7.02-2.21c-1.77-1.77-1.79-4.49-1.79-6.03V83.2h3.56V96.76z M172.88,83.2h3.56H172.88z"/>
			<path class="st1" d="M229.57,83.2l4.31,17.38l4.37-17.38h3.51l-5.46,21.75h-4.75l-4.47-17.95l-4.47,17.95h-4.78l-5.43-21.75h3.51
				l4.36,17.38l4.31-17.38H229.57z"/>
		</g>
		<g>
			<g>
				<path class="st1" d="M75.09,102.36c-2.29,0-4.88,0.1-6.65-2.88c-1.58-2.68-1.51-8.24,0.05-10.89c1.69-2.86,4.44-2.68,6.7-2.68
					h5.13v-2.65h-6.56c-3.27,0-6.29,0.05-8.65,4.24c-2.13,3.74-2.1,9.69,0,13.3c2.31,3.95,6.44,4.21,9.3,4.21h5.91v-2.65H75.09z"/>
			</g>
			<rect x="70.52" y="92.64" class="st1" width="9.79" height="2.69"/>
		</g>
		<g>
			<path class="st1" d="M120.81,95.57c1.77-0.47,2.96-1.76,3.9-3.39c1.09-1.9,0.96-4.31,0-6c-1.69-2.94-5.59-2.94-7.48-2.94h-10.42
				v21.75h3.35v-9.43h0v-2.55h0v-7.4h6.13c1.04,0,3.87-0.18,5.01,1.74c0.62,1.07,0.62,2.86-0.05,3.98c-1.17,1.9-3.4,1.69-4.73,1.69
				h-3.67v2.55h0.66l3.95,0.01l0.45,1.06l3.43,8.37h3.4l-3.98-9.42L120.81,95.57z"/>
		</g>
	</g>
	<g>
		<path class="st0" d="M129.05,45.89c2.06,0,3.88,1.01,5.01,2.55l4.34-2.21c-0.06-0.27-0.09-0.54-0.09-0.83
			c0-1.68,1.07-3.12,2.57-3.66v-4.01c-2.02-0.15-3.61-1.83-3.61-3.88c0-1.61,0.98-3,2.38-3.59l-1.03-4.72c-0.01,0-0.02,0-0.03,0
			c-1.42,0-2.58-1.15-2.58-2.58c0-1.42,1.15-2.58,2.58-2.58c1.33,0,2.41,1.01,2.55,2.29h3.4c0.34-1.02,1.3-1.76,2.43-1.76
			c1.42,0,2.58,1.15,2.58,2.58c0,0.85-0.41,1.59-1.05,2.06l4.6,7.22c0.31-0.08,0.63-0.12,0.97-0.12c2.25,0,4.08,1.83,4.08,4.08
			c0,1.94-1.35,3.56-3.17,3.97v4.13c2.95,0.31,5.25,2.8,5.25,5.83c0,3.24-2.62,5.86-5.86,5.86c-1.96,0-3.7-0.97-4.76-2.45l-4.91,2.5
			c0.06,0.22,0.09,0.46,0.09,0.7c0,1.33-0.93,2.43-2.17,2.71v5.74c0.91,0.34,1.56,1.21,1.56,2.24c0,0.25-0.05,0.48-0.12,0.7
			l4.6,2.66c0.35-0.42,0.87-0.69,1.46-0.69c1.06,0,1.92,0.86,1.92,1.92c0,1.06-0.86,1.92-1.92,1.92c-1.02,0-1.84-0.8-1.91-1.8
			l-4.94-2.85c-0.41,0.34-0.93,0.54-1.51,0.54c-1.33,0-2.4-1.08-2.4-2.4c0-1.14,0.79-2.09,1.86-2.33v-5.69
			c-1.15-0.34-1.99-1.4-1.99-2.66c0-1.53,1.24-2.78,2.78-2.78c0.79,0,1.5,0.33,2.01,0.86l4.92-2.51c-0.27-0.68-0.43-1.42-0.43-2.19
			c0-2.97,2.21-5.42,5.08-5.8V40.8c-2.03-0.24-3.6-1.96-3.6-4.05c0-1.42,0.72-2.66,1.82-3.39l-4.64-7.29
			c-0.07,0.01-0.13,0.02-0.2,0.02c-1.23,0-2.25-0.86-2.51-2.01h-3.54c-0.21,0.44-0.54,0.82-0.95,1.08l1.05,4.82
			c0.05,0,0.11-0.01,0.16-0.01c2.15,0,3.9,1.74,3.9,3.9c0,1.77-1.18,3.26-2.8,3.74v3.92c2.12,0.03,3.84,1.76,3.84,3.89
			c0,2.15-1.74,3.9-3.9,3.9c-1.37,0-2.58-0.71-3.27-1.78l-4.19,2.13c0.32,0.75,0.5,1.57,0.5,2.44c0,2.39-1.36,4.46-3.34,5.5
			l1.62,3.38c1.03,0.04,1.85,0.87,1.85,1.91c0,1.06-0.86,1.92-1.92,1.92s-1.92-0.86-1.92-1.92c0-0.58,0.26-1.09,0.67-1.44l-1.6-3.35
			c-0.5,0.13-1.02,0.21-1.56,0.21c-3.43,0-6.2-2.78-6.2-6.2S125.63,45.89,129.05,45.89z"/>
		<path class="st0" d="M151.02,66.21c-1.69,0-3.07-1.37-3.07-3.07c0-1.69,1.37-3.07,3.07-3.07s3.07,1.37,3.07,3.07
			c0,0.29-0.04,0.57-0.12,0.83l2.83,1.34c0.56-0.59,1.35-0.96,2.22-0.96c0.82,0,1.57,0.33,2.12,0.85l2.9-2.02
			c-0.06-0.19-0.1-0.4-0.1-0.61c0-0.95,0.64-1.74,1.51-1.99V57c-1.42-0.26-2.5-1.51-2.5-3.01c0-1.69,1.37-3.07,3.07-3.07
			c1.69,0,3.07,1.37,3.07,3.07c0,0.32-0.05,0.62-0.14,0.91l4.1,2.62c0.38-0.41,0.92-0.67,1.53-0.67c1.16,0,2.11,0.94,2.11,2.11
			c0,1.16-0.94,2.11-2.11,2.11s-2.11-0.94-2.11-2.11c0-0.05,0.01-0.1,0.02-0.15l-4.25-2.71c-0.38,0.4-0.86,0.69-1.4,0.84v3.73
			c0.74,0.32,1.27,1.05,1.27,1.91c0,1.15-0.93,2.08-2.08,2.08c-0.43,0-0.83-0.13-1.16-0.35l-2.97,2.06
			c0.12,0.33,0.19,0.68,0.19,1.05c0,1.69-1.37,3.07-3.07,3.07c-1.69,0-3.07-1.37-3.07-3.07c0-0.32,0.05-0.62,0.14-0.91l-2.79-1.32
			C152.74,65.82,151.93,66.21,151.02,66.21z"/>
		<path class="st0" d="M172.12,49.49c0-1.19,0.76-2.2,1.82-2.57v-4.7c-0.57-0.16-1.07-0.5-1.42-0.96l-4.28,2.18
			c0.01,0.12,0.03,0.23,0.03,0.35c0,1.51-1.22,2.73-2.73,2.73s-2.73-1.22-2.73-2.73c0-1.36,0.99-2.48,2.29-2.69V36.1
			c-1.54-0.58-2.65-2.07-2.65-3.81c0-0.54,0.11-1.06,0.3-1.53l-3.91-2.5c-0.55,0.5-1.27,0.81-2.07,0.81c-1.69,0-3.07-1.37-3.07-3.07
			s1.37-3.07,3.07-3.07c1.69,0,3.07,1.37,3.07,3.07c0,0.39-0.08,0.77-0.21,1.11l3.86,2.46c0.75-0.84,1.83-1.37,3.04-1.37
			c2.25,0,4.08,1.83,4.08,4.08c0,2.25-1.83,4.08-4.08,4.08c-0.01,0-0.03,0-0.04,0v4.86c0.5,0.18,0.92,0.5,1.23,0.92l4.26-2.17
			c-0.02-0.13-0.03-0.26-0.03-0.39c0-1.51,1.22-2.73,2.73-2.73s2.73,1.22,2.73,2.73c0,1.28-0.89,2.36-2.08,2.65v4.57
			c1.28,0.23,2.25,1.34,2.25,2.69c0,1.51-1.22,2.73-2.73,2.73S172.12,50.99,172.12,49.49z"/>
		<path class="st0" d="M108.13,46.42v-5.26c-0.82-0.29-1.4-1.06-1.4-1.98c0-1.16,0.94-2.11,2.11-2.11c1.16,0,2.11,0.94,2.11,2.11
			c0,0.92-0.6,1.7-1.42,1.98v5.26c1.29,0.31,2.24,1.47,2.24,2.85c0,0.27-0.04,0.52-0.1,0.77l3.92,2.06c0.39-0.45,0.93-0.77,1.54-0.9
			v-5.08c-0.99-0.36-1.7-1.3-1.7-2.41c0-1.42,1.15-2.58,2.58-2.58c0.75,0,1.41,0.32,1.88,0.83l6.01-3.47
			c-0.03-0.19-0.05-0.38-0.05-0.58c0-0.42,0.08-0.82,0.21-1.2l-5.17-1.32c-0.83,0.88-2.01,1.42-3.31,1.42
			c-2.53,0-4.57-2.05-4.57-4.57c0-2.53,2.05-4.57,4.57-4.57c1.54,0,2.89,0.76,3.72,1.92l4.3-1.76c-0.07-0.29-0.11-0.6-0.11-0.91
			c0-2.25,1.83-4.08,4.08-4.08c2.25,0,4.08,1.83,4.08,4.08c0,2.25-1.83,4.08-4.08,4.08c-1.44,0-2.71-0.75-3.43-1.88l-4.21,1.72
			c0.14,0.44,0.22,0.92,0.22,1.41c0,0.69-0.16,1.34-0.43,1.93l5.11,1.31c0.64-0.66,1.52-1.07,2.51-1.07c1.93,0,3.5,1.57,3.5,3.5
			c0,1.93-1.57,3.5-3.5,3.5c-1.23,0-2.32-0.64-2.94-1.61l-5.87,3.39c0.03,0.17,0.05,0.34,0.05,0.52c0,1.25-0.89,2.29-2.07,2.53v5.04
			c1.13,0.35,1.94,1.41,1.94,2.65c0,1.53-1.24,2.78-2.78,2.78c-1.53,0-2.78-1.24-2.78-2.78c0-0.2,0.02-0.4,0.06-0.59l-3.96-2.08
			c-0.54,0.59-1.31,0.96-2.16,0.96c-1.62,0-2.94-1.32-2.94-2.94C105.88,47.89,106.84,46.73,108.13,46.42z"/>
	</g>
</g>
</svg>
